# xmcd CD database file
#
# Track frame offsets:
#	150
#	57675
#	72777
#	126382
#	140907
#	210677
#	228522
#	235740
#	241447
#	249440
#	256840
#	264592
#
# Disc length: 3658 seconds
#
# Revision: 0
# Processed by: cddbd v1.5.1PL2 Copyright (c) Steve Scherf et al.
# Submitted via: CDex 1.51
#
DISCID=b90e480c
DTITLE=後藤沙緒里, 小清水亜美, さくら, 萌木学園3年B組男子 - めろ＠ドラマCD まんすりぃ 萌音 〜ハロー！ハロウィン！！〜 chapter(3)
DYEAR=2005
DGENRE=Anime
TTITLE0=第7話 『ハロウィンって何だろう？』
TTITLE1=を見せないで −Boys Don’t Cry−
TTITLE2=第8話 『Trick or Treat！？』
TTITLE3=リンダリンダ
TTITLE4=第9話 『ハロー！ハロウィン！！』
TTITLE5=悲しみよこんにちは
TTITLE6=着萌＠萌FILE 3
TTITLE7=	着萌＠小枝FILE 3
TTITLE8=着萌＠耀子FILE 1
TTITLE9=着萌＠ヨンFILE 1
TTITLE10=	着萌＠友萌FILE 3
TTITLE11=着めろ＠めどれー〜涙を見せないで −Boys Don’t Cry−／リンダリンダ／悲しみよこんにちは
EXTD=YEAR: 2005/10/19
EXTT0=
EXTT1=
EXTT2=
EXTT3=
EXTT4=
EXTT5=
EXTT6=
EXTT7=
EXTT8=
EXTT9=
EXTT10=
EXTT11=
PLAYORDER=
